<?xml version="1.0" standalone="no"?>
<!DOCTYPE svg PUBLIC "-//W3C//DTD SVG 20010904//EN"
 "http://www.w3.org/TR/2001/REC-SVG-20010904/DTD/svg10.dtd">
<svg version="1.0" xmlns="http://www.w3.org/2000/svg"
 width="1024.000000pt" height="1024.000000pt" viewBox="0 0 1024.000000 1024.000000"
 preserveAspectRatio="xMidYMid meet">

<g transform="translate(0.000000,1024.000000) scale(0.100000,-0.100000)"
fill="#000000" stroke="none">
<path d="M2406 8054 c-257 -47 -480 -214 -597 -446 -52 -103 -75 -175 -94
-294 -31 -191 -23 -255 164 -1404 22 -135 56 -342 75 -460 50 -304 106 -484
199 -641 63 -106 177 -239 267 -311 89 -73 232 -148 318 -169 28 -7 52 -18 52
-24 0 -7 -52 -225 -115 -486 -64 -261 -147 -604 -186 -764 -39 -159 -120 -492
-180 -740 -60 -247 -112 -460 -115 -473 l-4 -22 -391 0 -390 0 -24 -25 c-14
-13 -25 -34 -25 -45 0 -29 26 -76 45 -84 9 -3 1364 -6 3010 -6 2217 0 3001 3
3019 11 50 23 49 111 -3 138 -13 8 -190 11 -551 11 -492 0 -531 1 -528 17 2
13 52 28 233 69 127 29 245 53 264 53 34 1 290 -49 638 -125 111 -24 204 -44
207 -44 3 0 6 -8 6 -19 0 -38 23 -82 51 -96 22 -12 72 -15 234 -15 l207 0 29
29 c30 31 36 61 19 105 -15 40 -39 49 -280 102 -41 9 -129 29 -195 44 -118 28
-347 78 -555 120 -58 12 -144 30 -192 42 l-88 20 0 1948 0 1948 28 6 c15 3
412 5 882 4 853 -1 855 -1 897 20 46 24 102 88 124 142 22 56 14 336 -12 406
-25 67 -97 147 -163 182 l-51 27 -1874 3 -1874 2 -52 -24 c-68 -31 -130 -93
-163 -165 -25 -51 -27 -69 -30 -206 -3 -89 1 -171 7 -201 15 -65 60 -127 118
-161 l45 -26 972 -1 971 -1 3 -1956 2 -1956 -162 -36 c-237 -54 -269 -60 -275
-53 -3 3 -23 90 -44 193 -179 891 -404 1986 -425 2067 -5 22 -2 23 49 30 130
15 236 85 286 189 20 42 23 59 19 125 -6 93 -27 139 -95 205 -55 55 -143 100
-223 116 -30 6 -197 22 -370 36 -355 29 -472 41 -538 56 -84 19 -182 78 -264
161 -66 66 -86 95 -133 191 -31 64 -65 154 -80 211 -27 106 -109 509 -230
1131 -85 438 -108 531 -164 648 -79 166 -249 364 -399 466 -165 111 -286 148
-582 176 -36 4 -81 8 -100 11 -289 35 -495 41 -624 18z m519 -175 c428 -39
495 -53 639 -138 163 -96 290 -229 378 -398 64 -123 77 -172 158 -595 90 -475
206 -1050 231 -1150 71 -282 209 -503 388 -623 141 -93 220 -109 762 -155 196
-17 379 -37 406 -45 61 -18 137 -83 153 -129 19 -60 -20 -123 -94 -151 -41
-15 -200 -27 -771 -60 -143 -8 -413 -24 -600 -36 -390 -24 -497 -23 -1060 15
-447 31 -588 44 -680 62 -195 40 -396 191 -520 390 -122 195 -139 265 -289
1194 -172 1058 -175 1089 -136 1282 52 253 240 465 474 533 124 36 195 37 561
4z m5683 -1250 c26 -13 54 -38 70 -62 25 -38 27 -48 30 -179 l4 -138 -30 -30
-30 -30 -1896 0 -1895 0 -28 24 c-28 24 -28 26 -28 138 -1 142 9 197 43 237
54 64 -68 60 1911 61 l1805 0 44 -21z m-2920 -2371 c22 -86 104 -484 402
-1953 33 -165 63 -307 65 -316 4 -13 -11 -19 -77 -34 -46 -9 -164 -37 -262
-61 -99 -24 -181 -42 -183 -40 -7 6 -28 142 -104 666 -157 1084 -236 1622
-249 1690 -6 29 -8 55 -6 58 4 3 254 24 377 31 23 1 28 -4 37 -41z m-2353 3
c143 -11 307 -23 364 -27 l103 -6 -6 -44 c-3 -23 -44 -386 -91 -806 -47 -420
-94 -835 -105 -923 -10 -88 -28 -252 -40 -365 -11 -113 -23 -220 -26 -237 l-5
-33 -585 0 c-553 0 -585 1 -580 18 3 9 37 148 75 307 39 160 128 529 199 820
71 292 153 629 182 750 47 199 105 438 131 539 l10 38 57 -6 c31 -3 174 -15
317 -25z m1770 -33 c13 -74 90 -588 140 -938 71 -490 197 -1347 211 -1427 l7
-43 -552 0 -551 0 0 1199 0 1199 113 6 c61 4 207 13 322 20 325 21 303 22 310
-16z m-918 -21 c4 -5 9 -544 11 -1198 l3 -1189 -251 0 -250 0 5 38 c7 48 164
1449 215 1922 22 201 42 382 46 403 l6 39 103 -4 c57 -1 107 -7 112 -11z"/>
<path d="M2420 7711 c-96 -26 -166 -67 -242 -143 -146 -147 -201 -352 -164
-608 16 -107 47 -303 131 -815 19 -115 46 -280 59 -365 73 -463 97 -572 153
-698 73 -167 212 -314 359 -384 109 -51 162 -57 869 -98 268 -16 336 -20 490
-30 128 -9 142 -8 165 9 48 35 52 106 7 135 -16 11 -93 19 -287 30 -860 50
-1056 65 -1120 85 -118 37 -237 143 -304 270 -71 136 -80 181 -202 936 -35
220 -73 452 -84 515 -46 268 -80 514 -80 579 0 170 93 326 237 400 87 44 151
46 463 17 433 -41 473 -49 596 -127 118 -75 215 -201 265 -346 16 -46 85 -408
124 -649 11 -72 66 -109 122 -82 54 26 58 53 29 206 -14 76 -35 193 -46 262
-50 295 -97 427 -203 565 -99 130 -265 244 -403 280 -33 8 -156 24 -274 35
-118 11 -258 25 -310 30 -146 15 -276 11 -350 -9z"/>
<path d="M3943 6154 c-28 -28 -28 -36 1 -198 19 -102 39 -130 96 -134 49 -4
75 15 85 58 9 41 -34 246 -57 276 -28 34 -89 34 -125 -2z"/>
<path d="M4895 7088 c-51 -29 -60 -84 -20 -123 l24 -25 336 0 336 0 24 25 c32
31 32 66 1 102 l-24 28 -329 2 c-236 2 -334 0 -348 -9z"/>
<path d="M6213 7090 c-45 -18 -56 -80 -22 -124 l20 -26 1203 0 1203 0 21 23
c30 32 29 77 -4 108 l-26 24 -1186 2 c-672 1 -1196 -2 -1209 -7z"/>
<path d="M8410 1800 c-28 -28 -26 -75 5 -105 37 -38 76 -32 100 16 21 39 19
56 -10 84 -29 30 -68 32 -95 5z"/>
<path d="M8686 1799 c-52 -41 -23 -129 43 -129 35 0 71 40 71 77 0 29 -41 73
-68 73 -11 0 -31 -9 -46 -21z"/>
</g>
</svg>
